<svg width="38" height="11" viewBox="0 0 38 11" fill="none" xmlns="http://www.w3.org/2000/svg">
<g id="Vector">
<path d="M27.3386 0.400862H30.9591V1.48815H27.3386C26.4376 1.48815 25.7071 2.23433 25.7071 3.15479C25.7071 4.07525 26.4376 4.82143 27.3386 4.82143H32.8159V5.96427H27.3425C26.4393 5.96427 25.7071 6.71223 25.7071 7.63488C25.7071 8.55753 26.4393 9.30549 27.3425 9.30549H30.9591V10.3928H27.3425C25.8515 10.3928 24.6427 9.15802 24.6427 7.63488C24.6427 6.71166 25.0868 5.89439 25.7687 5.39382C25.0869 4.89407 24.6427 4.07741 24.6427 3.15479C24.6427 1.63384 25.8497 0.400862 27.3386 0.400862Z" fill="#2463EB"/>
<path d="M37.9979 4.82418C37.9986 4.82327 37.9993 4.82235 38 4.82143H37.9979V4.82418Z" fill="#2463EB"/>
<path d="M32.5822 9.32492H35.2414V10.3964H32.5822V9.32492Z" fill="#2463EB"/>
<path d="M9.30482 0.441702L5.33578 10.3964H3.96905L0 0.441702H1.38744L4.07949 7.45028C4.18993 7.7376 4.28887 8.02962 4.3763 8.32636C4.46834 8.62309 4.56268 8.91747 4.65931 9.2095C4.75135 8.91747 4.84799 8.61132 4.94923 8.29103C5.05047 7.97075 5.1471 7.6905 5.23914 7.45028L7.91738 0.441702H9.30482Z" fill="#2463EB"/>
<path d="M12.4141 0.441702V10.3964H11.0957V0.441702H12.4141Z" fill="#2463EB"/>
<path d="M22.9299 7.64811C22.9299 8.56657 22.5779 9.27779 21.8738 9.78177C21.1743 10.2857 20.1872 10.5377 18.9125 10.5377C16.5426 10.5377 15.169 9.69463 14.7916 8.00843L16.0686 7.74702C16.2159 8.3452 16.5288 8.78559 17.0074 9.06819C17.486 9.34609 18.1371 9.48503 18.9609 9.48503C19.8122 9.48503 20.4679 9.33667 20.9281 9.03993C21.3929 8.73849 21.6253 8.2981 21.6253 7.71876C21.6253 7.39376 21.5517 7.13 21.4044 6.92747C21.2618 6.72493 21.0593 6.55773 20.797 6.42584C20.5347 6.29396 20.2217 6.18328 19.8582 6.09378C19.4947 6.00429 19.092 5.90774 18.6502 5.80412C18.1394 5.68636 17.7115 5.57097 17.3663 5.45793C17.0258 5.34488 16.7451 5.22713 16.5242 5.10467C16.3033 4.9775 16.1146 4.84326 15.9582 4.70196C15.7281 4.4853 15.5509 4.23331 15.4267 3.94599C15.307 3.65868 15.2472 3.32897 15.2472 2.95688C15.2472 2.10436 15.5647 1.4473 16.1998 0.985715C16.8394 0.524128 17.7529 0.293335 18.9401 0.293335C20.0446 0.293335 20.889 0.467608 21.4734 0.816153C22.0579 1.15999 22.4674 1.74875 22.7021 2.58243L21.4044 2.81558C21.2618 2.28805 20.9902 1.90653 20.5899 1.67103C20.1895 1.43082 19.635 1.31071 18.9263 1.31071C18.1486 1.31071 17.555 1.44259 17.1454 1.70636C16.7359 1.97012 16.5311 2.36341 16.5311 2.88623C16.5311 3.19238 16.6093 3.44673 16.7658 3.64926C16.9269 3.84708 17.157 4.01429 17.4561 4.15088C17.7368 4.28747 18.3327 4.45939 19.2439 4.66663C19.6166 4.75612 19.9848 4.85033 20.3483 4.94924C20.7118 5.04344 21.0547 5.16355 21.3768 5.30956C21.5655 5.38963 21.7449 5.48854 21.9152 5.60629C22.0901 5.71933 22.2419 5.85122 22.3708 6.00194C22.5457 6.19976 22.6814 6.43291 22.778 6.70138C22.8793 6.96986 22.9299 7.28543 22.9299 7.64811Z" fill="#2463EB"/>
</g>
</svg>
